<?xml version="1.0" standalone="no"?>
<!DOCTYPE svg PUBLIC "-//W3C//DTD SVG 20010904//EN"
 "http://www.w3.org/TR/2001/REC-SVG-20010904/DTD/svg10.dtd">
<svg version="1.0" xmlns="http://www.w3.org/2000/svg"
 width="781.000000pt" height="781.000000pt" viewBox="0 0 781.000000 781.000000"
 preserveAspectRatio="xMidYMid meet">
<metadata>
Created by potrace 1.14, written by Peter Selinger 2001-2017
</metadata>
<g transform="translate(0.000000,781.000000) scale(0.100000,-0.100000)"
fill="#000000" stroke="none">
<path d="M6018 7698 c-40 -62 -104 -160 -143 -218 l-70 -106 -232 1 c-130 0
-233 -3 -233 -8 0 -5 57 -99 128 -209 70 -110 127 -210 126 -222 0 -11 -36
-126 -78 -254 -43 -129 -75 -236 -73 -239 3 -3 52 13 109 35 57 22 156 61 221
87 101 39 121 44 135 33 9 -7 89 -74 177 -149 88 -74 168 -138 178 -142 15 -6
17 1 18 51 0 59 8 449 9 468 0 6 88 80 195 164 107 84 193 156 190 160 -3 4
-15 10 -27 13 -32 7 -391 131 -405 140 -6 4 -14 22 -18 40 -13 61 -96 402
-106 435 -6 17 -14 32 -19 32 -5 0 -41 -51 -82 -112z"/>
<path d="M6815 6943 c-5 -27 -9 -52 -11 -58 -9 -38 -64 -286 -64 -290 0 -3
-18 2 -40 11 -76 30 -140 -5 -140 -76 0 -78 110 -115 177 -60 22 17 30 46 77
268 2 9 7 31 11 49 l7 32 75 -52 c99 -69 98 -67 83 -124 -6 -27 -14 -57 -16
-68 -24 -126 -19 -117 -57 -97 -28 15 -49 19 -85 13 -22 -3 -51 -40 -56 -73
-4 -27 -1 -42 15 -62 54 -69 177 -41 192 44 3 19 8 44 11 55 58 239 83 362 75
371 -14 17 -226 164 -237 164 -5 0 -13 -21 -17 -47z m129 -112 c60 -44 90 -81
68 -81 -8 0 -121 78 -149 103 -22 19 -21 56 1 38 6 -5 42 -32 80 -60z"/>
<path d="M5010 6546 c0 -6 23 -69 50 -139 28 -71 50 -130 50 -133 0 -2 -11 -4
-24 -4 -35 0 -68 -31 -68 -65 0 -18 8 -36 22 -47 41 -33 93 -18 114 34 12 28
10 40 -30 139 -24 60 -44 111 -44 114 0 10 140 2 148 -9 5 -6 18 -36 29 -66
12 -30 24 -63 28 -72 6 -15 2 -18 -19 -18 -37 0 -76 -41 -69 -71 15 -62 76
-79 118 -33 33 35 32 57 -9 161 -19 49 -45 116 -58 151 -22 59 -24 62 -58 63
-19 0 -68 2 -107 3 -47 2 -73 -1 -73 -8z m158 -45 c23 -1 42 -6 42 -11 0 -14
-142 -8 -147 6 -2 6 9 10 29 8 18 -1 52 -3 76 -3z"/>
<path d="M972 6167 c0 -424 4 -452 68 -495 62 -41 154 -13 181 56 17 45 19 83
20 442 l1 365 -36 3 c-29 3 -36 0 -36 -15 -1 -10 -1 -182 -2 -382 0 -390 -4
-422 -51 -435 -22 -6 -66 33 -68 61 -1 10 -3 185 -4 388 -1 204 -3 373 -4 378
0 4 -16 7 -35 7 l-33 0 -1 -373z"/>
<path d="M1370 6096 l0 -443 32 3 c17 2 34 8 37 13 3 5 5 74 5 154 l-1 146 28
12 c58 23 121 111 145 201 11 45 12 157 1 205 -7 29 -36 83 -56 104 -25 27
-89 49 -142 49 l-49 0 0 -444z m138 361 c51 -57 61 -229 18 -331 -14 -33 -63
-96 -75 -96 -6 0 -8 407 -3 447 3 16 37 5 60 -20z"/>
<path d="M1723 6100 l0 -440 36 0 37 0 -1 155 -1 155 26 9 c56 21 123 109 144
189 29 107 9 258 -40 313 -29 33 -94 59 -150 59 l-51 0 0 -440z m116 375 c72
-37 90 -251 31 -365 -13 -27 -60 -80 -69 -80 -5 0 -7 425 -2 453 2 10 8 9 40
-8z"/>
<path d="M2077 6533 c-2 -5 -3 -122 -3 -260 1 -185 -2 -253 -10 -253 -19 0
-24 -49 -5 -55 14 -4 16 -25 16 -155 l-1 -150 53 -1 c173 -3 173 -3 173 26 0
24 -2 25 -75 25 l-75 0 0 128 0 129 57 -1 c55 -1 57 0 57 24 1 23 -3 25 -57
28 l-57 3 0 233 0 232 63 -1 c78 -2 87 2 87 31 0 24 -1 24 -109 24 -61 0 -112
-3 -114 -7z"/>
<path d="M2384 6100 c0 -476 -3 -452 52 -442 20 4 20 9 19 143 0 77 2 144 6
150 11 19 80 -135 92 -209 13 -76 25 -93 59 -84 18 4 19 11 14 57 -3 29 -9 63
-14 76 -5 13 -11 29 -12 34 -1 6 -6 20 -11 33 -5 13 -9 25 -9 27 0 3 -16 29
-35 59 -33 52 -34 56 -17 68 45 32 90 115 109 198 10 49 1 158 -18 207 -29 78
-96 122 -185 123 l-50 0 0 -440z m149 347 c43 -67 45 -231 5 -319 -25 -53 -59
-98 -75 -98 -6 0 -9 390 -4 447 2 18 57 -4 74 -30z"/>
<path d="M2904 6103 c0 -241 4 -441 8 -444 17 -11 117 10 146 31 77 57 115
193 116 410 0 300 -75 440 -234 440 l-36 0 0 -437z m119 359 c51 -44 77 -164
77 -357 1 -183 -13 -269 -56 -341 -21 -38 -50 -61 -61 -50 -4 4 -7 643 -4 749
1 29 8 29 44 -1z"/>
<path d="M3350 6393 c-12 -81 -24 -157 -27 -168 -2 -11 -6 -39 -9 -61 -2 -23
-7 -53 -9 -65 -3 -13 -8 -44 -11 -69 -3 -25 -8 -54 -10 -65 -2 -10 -6 -37 -9
-60 -3 -22 -10 -65 -16 -95 -5 -30 -12 -76 -15 -102 l-6 -48 31 0 c17 0 31 3
32 8 2 27 11 90 14 107 2 11 4 27 4 36 1 12 14 15 66 16 l64 0 7 -46 c14 -100
20 -126 27 -123 4 1 21 2 38 2 27 0 30 3 23 22 -4 13 -8 34 -9 48 -2 21 -15
109 -31 200 -2 14 -7 45 -9 70 -7 52 -11 75 -19 110 -3 14 -8 45 -11 70 -2 25
-7 56 -9 70 -3 14 -7 43 -11 65 -3 22 -10 69 -16 105 -6 36 -12 76 -13 90 -2
16 -10 26 -23 28 -18 3 -22 -9 -43 -145z m44 -188 c4 -23 8 -50 10 -60 2 -11
7 -42 10 -70 4 -27 11 -79 16 -115 5 -36 10 -68 10 -72 0 -5 -24 -8 -54 -8
l-54 0 4 37 c2 21 6 49 8 63 3 14 8 44 11 68 7 60 17 124 20 142 2 8 4 26 4
39 1 34 8 23 15 -24z"/>
<path d="M3628 6528 c-3 -11 -3 -812 1 -859 1 -13 8 -15 34 -10 l32 7 1 142
c0 78 3 144 6 148 4 3 25 -32 47 -78 28 -57 43 -104 48 -148 l8 -65 35 0 c33
0 35 2 32 30 -10 90 -62 230 -103 273 -19 21 -19 21 18 59 20 21 48 63 62 93
23 49 26 67 26 170 0 111 -1 117 -30 160 -19 29 -46 53 -75 67 -50 25 -135 31
-142 11z m113 -55 c44 -26 62 -75 65 -173 2 -61 -3 -102 -16 -145 -18 -57 -72
-131 -87 -122 -6 4 -9 300 -4 435 1 26 5 27 42 5z"/>
<path d="M3980 6100 l0 -440 28 -1 c169 -7 247 85 246 291 0 80 -5 104 -26
150 -14 30 -35 63 -46 74 l-22 19 24 28 c53 63 60 178 14 244 -29 44 -100 75
-167 75 l-51 0 0 -440z m144 354 c28 -29 28 -28 31 -94 3 -78 -22 -121 -77
-135 l-26 -7 0 131 c0 129 0 131 23 131 12 0 34 -12 49 -26z m25 -340 c27 -57
35 -103 34 -187 -2 -78 -24 -155 -52 -179 -23 -20 -56 -38 -69 -38 -5 0 -9 97
-10 224 l-1 225 27 9 c34 12 44 4 71 -54z"/>
<path d="M4306 6513 c3 -16 10 -44 15 -63 4 -19 10 -48 13 -65 6 -32 17 -89
35 -170 6 -27 12 -59 14 -70 15 -75 21 -101 22 -107 2 -5 3 -91 4 -193 l1
-185 35 0 c33 0 35 2 35 33 5 355 5 353 53 579 26 120 49 229 53 243 6 23 3
25 -24 25 -21 0 -32 -6 -35 -17 -6 -21 -34 -156 -41 -193 -18 -102 -30 -159
-34 -155 -4 3 -37 155 -46 210 -2 11 -9 50 -16 88 l-12 67 -39 0 c-38 0 -39
-1 -33 -27z"/>
<path d="M7239 6293 c-4 -8 -195 -168 -277 -232 l-42 -33 -187 61 c-102 33
-190 58 -195 55 -4 -3 -4 -13 1 -22 7 -15 85 -306 99 -370 3 -15 -6 -35 -30
-65 -25 -30 -196 -264 -224 -305 -1 -2 -26 4 -55 12 -106 31 -259 13 -358 -43
-138 -77 -246 -269 -276 -491 -23 -167 -20 -450 6 -517 5 -12 7 -23 4 -23 -2
0 1 -15 6 -32 6 -18 12 -42 14 -53 3 -11 15 -45 27 -75 75 -185 210 -303 386
-336 60 -11 277 -13 288 -2 3 4 8 288 5 329 -1 15 -12 16 -84 12 -109 -7 -149
11 -196 88 -32 52 -28 64 28 78 223 57 432 261 466 453 3 18 8 34 11 37 2 3 4
-209 4 -470 0 -261 0 -485 0 -499 l0 -25 210 0 c116 -1 211 2 211 5 1 3 3 214
4 470 3 455 3 466 25 524 41 107 139 184 239 188 23 1 41 4 42 7 3 20 5 358 1
368 -2 7 -19 10 -45 7 -82 -8 -112 -16 -161 -42 -28 -15 -54 -28 -57 -30 -4
-2 3 30 15 70 22 71 23 73 67 89 24 9 55 20 69 26 14 6 83 32 155 57 71 26
131 49 133 51 2 1 -70 56 -158 121 l-161 119 5 70 c10 119 19 268 20 320 1 39
-3 50 -15 53 -10 2 -19 -1 -20 -5z m-580 -1095 c0 -180 -1 -182 -15 -128 -8
30 -26 78 -39 106 -26 55 -109 145 -156 170 -16 8 -29 16 -29 18 0 1 26 4 57
5 32 1 58 3 59 4 2 1 30 3 63 5 l61 3 -1 -183z"/>
<path d="M5566 6168 c-14 -57 -28 -113 -31 -126 -12 -65 -4 -59 -165 -110 -52
-17 -96 -34 -98 -40 -1 -5 41 -42 95 -82 54 -41 104 -81 111 -89 8 -10 12 -60
12 -168 0 -120 3 -153 13 -153 11 0 83 54 107 80 23 24 110 90 120 90 7 0 26
-6 43 -14 80 -35 197 -78 205 -74 5 1 -10 62 -34 133 -48 143 -51 167 -29 185
8 7 15 16 15 20 0 4 27 49 61 99 33 51 58 95 55 98 -2 3 -64 6 -138 6 l-133 2
-72 110 c-81 122 -90 135 -102 135 -4 0 -20 -46 -35 -102z"/>
<path d="M6234 6113 c3 -21 8 -65 11 -98 9 -85 11 -112 19 -183 l8 -62 -31 -6
c-57 -12 -108 -85 -84 -123 6 -9 27 -17 51 -19 33 -3 46 2 72 26 36 31 39 50
26 167 -19 183 -19 188 1 177 32 -18 63 -52 69 -77 8 -31 -1 -107 -16 -135 -9
-16 -8 -20 5 -20 20 0 54 74 55 117 0 49 -17 83 -69 138 -26 27 -60 69 -76 93
-34 52 -48 54 -41 5z"/>
<path d="M482 5404 c-124 -32 -248 -124 -305 -224 -53 -93 -72 -218 -53 -343
19 -121 87 -216 268 -371 68 -59 88 -93 88 -153 0 -99 -113 -142 -246 -92 -31
12 -59 17 -64 13 -9 -10 -100 -326 -100 -347 0 -15 75 -39 160 -53 56 -9 232
-10 285 -2 176 28 319 133 392 288 33 72 44 126 45 219 1 152 -23 229 -102
331 -42 54 -38 51 -136 124 -88 65 -143 122 -145 148 -1 10 -2 24 -3 31 -3 21
16 56 41 72 26 17 80 22 129 11 29 -6 29 -5 107 150 43 86 75 160 70 165 -4 4
-46 17 -92 28 -101 23 -261 26 -339 5z"/>
<path d="M2575 5369 l-55 -52 0 42 c0 39 -1 41 -32 42 -140 4 -351 3 -357 -1
-4 -3 -7 -356 -7 -785 l1 -780 195 -1 c107 -1 203 0 213 3 16 4 17 38 17 527
0 567 3 597 55 646 47 44 114 26 152 -43 16 -29 18 -71 20 -504 1 -436 0 -473
-15 -474 -9 -1 -47 -1 -84 0 -64 0 -68 -1 -69 -22 0 -12 0 -86 -1 -164 l0
-143 -59 0 -59 0 0 -175 c0 -133 3 -175 13 -176 6 -1 28 -3 47 -4 19 -1 40 -3
46 -4 8 -1 12 -76 12 -259 1 -142 4 -282 7 -313 l6 -54 -63 3 c-34 2 -64 4
-65 6 -1 1 -5 26 -7 54 -14 166 -78 263 -264 397 -103 74 -127 137 -73 189 30
29 79 38 131 24 25 -7 29 -1 98 139 41 80 70 149 65 154 -19 18 -145 42 -236
44 -341 10 -553 -231 -494 -561 17 -95 90 -189 270 -349 37 -33 57 -58 57 -73
0 -20 -5 -22 -62 -23 -96 -2 -315 -15 -403 -24 -16 -2 -61 -6 -100 -10 -38 -3
-77 -8 -85 -10 -8 -2 -37 -7 -65 -11 -68 -8 -206 -40 -285 -65 -192 -62 -267
-156 -205 -257 68 -110 307 -238 670 -360 198 -67 478 -147 621 -177 12 -3 80
-19 150 -36 71 -17 142 -32 157 -35 16 -2 72 -13 125 -24 53 -12 111 -24 127
-26 17 -2 41 -6 55 -9 21 -5 319 -57 400 -70 14 -2 75 -11 135 -20 61 -9 121
-18 135 -20 14 -2 50 -7 80 -11 30 -4 66 -8 80 -10 14 -2 49 -6 79 -9 30 -3
57 -7 60 -9 3 -2 42 -7 86 -10 44 -4 87 -9 95 -11 8 -2 47 -6 85 -10 100 -9
154 -15 200 -20 101 -10 235 -21 385 -30 58 -4 125 -8 150 -10 224 -19 898
-26 1150 -12 243 13 404 30 545 59 28 5 64 12 80 14 68 12 237 75 282 107 27
18 56 50 67 71 16 33 17 43 6 79 -15 50 -81 119 -163 171 -55 36 -206 112
-264 134 -98 38 -137 53 -213 80 -117 41 -280 92 -296 92 -23 0 -16 18 9 22
22 3 22 5 22 158 l0 155 -85 0 c-70 0 -91 4 -120 22 -32 20 -80 86 -80 111 0
5 33 20 73 33 243 78 408 279 421 512 15 278 -155 478 -415 486 -256 9 -450
-198 -484 -517 -4 -32 -8 -68 -11 -82 -5 -30 -5 -241 1 -290 15 -138 53 -272
101 -354 20 -34 39 -63 43 -66 3 -3 19 -19 35 -37 l28 -31 -83 19 c-46 10
-100 22 -121 25 l-36 6 -1 192 c0 105 -1 217 0 249 0 66 0 64 -1 185 0 52 2
98 6 103 3 5 2 9 -3 9 -4 0 -8 126 -7 280 l1 280 -189 0 -188 0 0 -42 0 -42
-46 47 c-25 26 -53 47 -62 48 -187 10 -355 -90 -440 -264 -53 -108 -74 -203
-77 -362 -4 -192 18 -317 80 -452 l33 -72 -41 5 c-69 9 -89 13 -94 18 -3 3 -7
162 -8 353 -2 191 -5 357 -8 368 -3 11 -8 40 -12 65 -4 25 -22 77 -39 115 -56
122 -155 194 -298 219 -86 15 -236 12 -323 -6 l-60 -13 -3 -161 -2 -162 62 13
c35 8 100 13 144 12 66 -2 86 -6 104 -22 41 -37 46 -85 9 -85 -28 0 -132 -38
-189 -68 -182 -99 -294 -273 -302 -468 l-3 -65 -95 7 c-52 4 -101 7 -108 7
-27 1 -35 83 -36 367 l-1 285 105 3 c57 2 106 5 108 7 4 4 5 77 3 252 l-1 92
-107 3 -108 3 0 83 c0 75 2 82 20 83 11 0 56 1 100 2 l80 2 1 525 c1 369 5
538 13 568 27 98 113 137 166 76 49 -56 49 -64 50 -636 l0 -538 212 0 c117 0
213 3 214 8 5 61 2 968 -4 1022 -4 41 -8 82 -9 90 -1 38 -43 161 -75 220 -85
156 -236 241 -438 245 -130 3 -264 -35 -318 -90 -14 -14 -22 -12 -79 19 -78
43 -153 65 -240 72 l-67 6 -56 -53z m3187 -2020 c19 -25 27 -113 14 -166 -20
-86 -111 -199 -144 -179 -13 8 -7 192 8 263 21 102 78 141 122 82z m-1012 -24
c53 -27 50 -6 51 -495 0 -140 0 -260 0 -267 -1 -17 -34 -5 -74 28 -47 39 -96
140 -118 242 -17 82 -21 294 -6 345 4 12 9 31 11 41 12 55 61 111 104 120 2 1
16 -6 32 -14z m-982 -575 l1 -160 -62 5 c-34 4 -68 8 -76 11 -22 7 -8 142 21
200 22 45 94 118 108 109 3 -2 7 -76 8 -165z"/>
<path d="M4387 5382 c-23 -20 -46 -43 -50 -49 -15 -24 -27 -13 -24 25 l2 37
-199 0 -199 0 -2 -782 -1 -783 213 0 213 0 1 203 c2 777 5 882 21 917 18 40
53 75 85 82 34 9 82 -27 103 -78 19 -44 20 -71 20 -585 l1 -539 213 0 213 0 2
518 c0 284 4 533 7 552 14 76 59 130 108 130 39 -1 62 -18 89 -67 26 -47 35
-197 18 -281 -7 -31 -13 -64 -15 -72 -7 -46 -18 -58 -64 -70 -26 -6 -53 -14
-59 -16 -15 -4 -18 -34 -4 -34 5 0 16 -6 23 -13 7 -7 27 -23 45 -35 32 -23 32
-23 30 -102 -2 -67 0 -80 13 -80 9 0 22 6 28 12 10 10 12 -34 11 -210 -1 -122
0 -224 2 -227 8 -8 409 -8 417 -1 13 14 9 1003 -4 1089 -32 198 -103 327 -227
408 -108 70 -253 96 -412 75 -45 -7 -165 -57 -206 -87 -12 -9 -24 -6 -55 15
-67 44 -165 74 -267 81 -44 3 -53 0 -90 -33z"/>
<path d="M984 5401 c-8 -9 -2 -1026 7 -1088 43 -301 236 -485 517 -492 245 -7
434 127 510 360 12 35 23 78 26 94 2 17 8 50 12 75 12 74 11 1049 -1 1053 -9
2 -365 1 -405 -2 -13 -1 -15 -67 -15 -528 0 -564 -2 -589 -50 -640 -41 -42
-107 -37 -138 11 -39 59 -40 85 -40 631 l1 530 -210 0 c-115 0 -211 -2 -214
-4z"/>
<path d="M7615 5120 c-3 -5 -4 -10 -1 -10 3 0 1 -12 -5 -26 -7 -20 -68 -250
-84 -319 -1 -5 -8 -31 -15 -57 l-12 -48 -39 6 c-52 9 -82 -1 -124 -37 -68 -60
-29 -131 70 -125 55 3 91 27 110 73 13 30 69 229 80 283 10 47 18 70 26 70 5
0 23 -19 40 -42 49 -68 36 -139 -47 -255 -28 -39 8 -29 50 13 75 75 88 165 38
269 -28 57 -56 152 -61 208 -1 10 -19 9 -26 -3z"/>
<path d="M1410 1013 c0 -29 3 -33 25 -33 22 0 25 4 25 33 0 29 -3 33 -25 33
-22 0 -25 -4 -25 -33z"/>
<path d="M282 1032 c-9 -7 -12 -54 -10 -202 3 -192 3 -193 26 -195 12 -1 22 1
23 4 0 3 1 68 2 144 0 75 4 137 7 137 4 0 22 -28 39 -62 77 -151 98 -174 125
-133 9 13 16 26 16 28 0 2 22 44 50 93 38 67 50 83 51 64 0 -14 1 -81 2 -150
2 -103 5 -125 17 -126 33 -1 36 15 35 207 l0 192 -24 2 c-29 2 -30 1 -102
-130 -33 -60 -64 -113 -68 -117 -4 -5 -37 48 -75 116 -37 68 -74 127 -82 130
-19 7 -16 7 -32 -2z"/>
<path d="M3089 996 c-1 -17 -1 -39 0 -48 2 -12 -5 -18 -18 -18 -14 0 -21 -6
-21 -20 0 -13 7 -20 19 -20 17 0 18 -9 18 -112 0 -105 2 -113 24 -131 18 -14
32 -17 63 -13 51 9 58 14 47 35 -7 13 -18 16 -39 13 -16 -2 -33 1 -37 8 -6 9
-9 122 -6 189 1 8 8 11 21 8 22 -6 54 19 45 34 -4 5 -19 9 -36 9 -21 0 -29 5
-30 18 0 9 -2 31 -2 47 -2 24 -7 30 -24 31 -19 1 -23 -4 -24 -30z"/>
<path d="M845 935 c-67 -17 -95 -30 -95 -47 0 -22 7 -22 51 -4 66 27 129 -3
129 -61 0 -19 -4 -23 -17 -19 -93 28 -195 -20 -188 -89 7 -74 101 -109 173
-65 39 24 42 24 42 6 0 -17 41 -29 54 -16 6 6 5 19 -2 35 -7 14 -12 60 -12
101 0 86 -16 126 -57 143 -32 13 -63 19 -78 16z m69 -161 c26 -10 20 -60 -10
-83 -44 -35 -119 -23 -124 19 -5 33 1 47 23 58 25 12 87 15 111 6z"/>
<path d="M1130 924 c-40 -17 -57 -35 -76 -80 -38 -91 13 -194 103 -209 35 -6
101 16 115 38 4 7 8 -5 8 -26 0 -30 -7 -46 -30 -69 -28 -27 -36 -30 -77 -25
-25 2 -58 14 -74 26 -34 25 -35 25 -43 5 -13 -35 57 -73 128 -70 69 4 102 19
126 58 18 29 20 51 20 196 l0 163 -22 -3 c-17 -2 -22 -9 -20 -26 l3 -22 -37
25 c-20 14 -40 25 -43 26 -39 5 -55 4 -81 -7z m123 -63 c14 -13 22 -37 25 -74
4 -45 1 -57 -19 -80 -32 -37 -79 -42 -121 -13 -18 12 -33 27 -33 33 0 6 -3 15
-7 19 -21 20 -4 79 36 122 17 20 28 23 60 19 21 -3 48 -15 59 -26z"/>
<path d="M1630 930 c-91 -25 -134 -115 -100 -205 25 -67 88 -102 164 -91 39 6
96 45 96 65 0 18 -43 19 -62 1 -24 -22 -65 -31 -92 -20 -80 30 -86 172 -8 201
34 13 89 3 100 -18 7 -11 17 -14 36 -9 23 6 25 9 16 26 -20 38 -99 64 -150 50z"/>
<path d="M2072 927 c-42 -13 -89 -67 -98 -112 -25 -133 101 -229 216 -164 153
86 50 326 -118 276z m109 -66 c35 -36 41 -74 18 -133 -13 -32 -62 -58 -98 -52
-28 5 -68 46 -77 80 -10 37 13 98 43 116 42 26 80 22 114 -11z"/>
<path d="M2450 932 c-8 -3 -28 -16 -45 -30 l-30 -25 -3 27 c-3 21 -8 27 -25
24 -21 -3 -22 -7 -22 -145 0 -124 2 -142 16 -146 30 -8 35 7 34 85 -1 43 4 91
11 107 15 36 67 65 100 57 35 -9 44 -43 44 -157 0 -97 0 -99 23 -95 21 3 22 8
25 102 4 109 -9 168 -38 184 -23 12 -69 19 -90 12z"/>
<path d="M2852 926 c-19 -5 -40 -19 -48 -31 -41 -62 -14 -105 81 -130 80 -22
94 -35 71 -70 -13 -20 -24 -25 -59 -25 -23 1 -53 7 -67 15 -33 19 -47 19 -54
-1 -4 -11 6 -21 38 -35 102 -45 216 2 201 82 -7 35 -25 48 -100 69 -65 19 -85
31 -85 56 0 33 67 50 118 29 43 -19 49 -19 55 -1 4 9 -6 20 -28 30 -43 21 -82
25 -123 12z"/>
<path d="M3327 923 c-44 -13 -68 -35 -53 -50 3 -3 24 1 46 10 22 8 48 14 57
12 10 -2 23 -4 30 -4 21 -2 43 -32 43 -61 0 -28 -2 -29 -32 -23 -18 3 -35 6
-38 6 -3 1 -24 -2 -47 -6 -80 -14 -109 -93 -54 -148 36 -35 90 -39 139 -9 l32
20 21 -21 c11 -11 26 -18 32 -16 14 4 23 47 10 47 -4 0 -9 40 -9 88 -2 99 -11
125 -53 146 -43 23 -71 25 -124 9z m108 -149 c17 -4 20 -12 17 -38 -4 -38 -43
-66 -89 -66 -33 0 -46 8 -61 36 -10 18 -8 27 9 48 16 21 29 26 62 26 23 0 51
-3 62 -6z"/>
<path d="M3685 932 c-46 -8 -72 -25 -97 -63 -30 -46 -31 -114 -4 -168 35 -66
118 -88 179 -46 l37 24 0 -37 c0 -43 -26 -78 -65 -88 -37 -9 -93 4 -117 28
-17 17 -22 18 -33 7 -11 -11 -11 -17 -2 -30 37 -50 160 -63 214 -23 47 35 55
63 54 202 0 206 1 192 -21 192 -18 0 -26 -16 -21 -43 1 -5 -13 3 -31 16 -36
27 -62 35 -93 29z m88 -74 c28 -28 32 -40 31 -81 -3 -109 -125 -142 -174 -47
-55 107 61 211 143 128z"/>
<path d="M4030 932 c-14 -2 -40 -15 -58 -28 -142 -108 -14 -330 151 -260 18 7
40 23 51 34 18 21 18 22 -4 30 -18 7 -28 3 -46 -15 -32 -31 -83 -31 -122 2
-28 23 -48 64 -34 66 4 1 57 2 119 2 61 1 115 5 118 9 14 14 -7 79 -36 113
-16 18 -44 37 -62 41 -43 10 -48 11 -77 6z m103 -74 c15 -18 26 -37 24 -43 -2
-5 -44 -11 -95 -13 -92 -3 -92 -3 -92 22 0 16 11 33 32 49 43 34 93 29 131
-15z"/>
<path d="M1412 783 c3 -140 4 -148 23 -148 19 0 20 8 23 148 l3 147 -26 0 -26
0 3 -147z"/>
<path d="M4262 668 c2 -21 8 -33 18 -33 10 0 16 12 18 33 3 27 0 32 -18 32
-18 0 -21 -5 -18 -32z"/>
<path d="M4736 412 c-3 -3 -6 -17 -6 -31 0 -21 5 -27 24 -29 18 -1 25 4 29 23
4 25 -5 37 -30 41 -6 1 -14 -1 -17 -4z"/>
<path d="M5672 413 c-16 -6 -42 -57 -42 -83 0 -11 -8 -24 -17 -27 -36 -13 -38
-43 -4 -43 17 0 18 -11 19 -117 0 -65 1 -123 1 -129 1 -6 11 -10 24 -9 21 2
22 5 23 116 1 63 2 120 3 127 1 7 15 12 34 12 38 0 48 6 40 26 -3 8 -19 14
-39 14 -29 0 -34 4 -34 23 0 35 16 50 54 51 43 2 53 11 36 31 -12 14 -70 19
-98 8z"/>
<path d="M6469 415 c-1 0 -2 -83 -4 -185 -1 -173 0 -187 18 -207 22 -25 42
-28 81 -13 32 12 25 40 -10 40 -13 0 -27 8 -32 18 -4 9 -8 87 -7 172 1 85 0
160 -2 167 -4 9 -28 13 -44 8z"/>
<path d="M6629 413 c-8 -48 -4 -63 17 -63 15 0 23 7 26 24 3 14 2 28 -1 33 -8
11 -41 16 -42 6z"/>
<path d="M6819 413 c-21 -5 -49 -55 -49 -87 0 -19 -5 -26 -20 -26 -13 0 -20
-7 -20 -20 0 -13 7 -20 20 -20 18 0 19 -7 19 -119 -1 -66 2 -124 5 -129 9 -15
41 -8 42 9 1 8 2 65 3 127 l1 112 40 0 c33 0 40 3 40 20 0 17 -7 20 -40 20
-45 0 -52 18 -24 59 14 19 23 22 50 18 28 -5 34 -3 34 13 0 27 -47 38 -101 23z"/>
<path d="M2880 403 c-12 -3 -15 -20 -13 -86 1 -45 2 -134 3 -197 l0 -116 25 0
25 0 -1 144 c0 79 1 146 4 148 2 2 10 -8 18 -24 8 -15 33 -60 57 -100 23 -40
42 -77 42 -82 0 -6 10 -10 23 -10 16 0 29 13 48 48 70 130 94 171 97 167 2 -2
4 -67 5 -146 2 -140 2 -142 25 -144 12 -1 23 1 23 4 3 16 5 378 1 387 -3 10
-49 11 -56 2 -2 -2 -33 -59 -71 -126 l-68 -124 -36 64 c-21 34 -52 91 -71 125
-33 60 -48 73 -80 66z"/>
<path d="M3411 289 c-44 -19 -70 -53 -80 -102 -9 -39 4 -101 27 -133 19 -26
80 -54 118 -54 48 0 122 43 124 71 0 13 -40 17 -48 5 -35 -61 -157 -36 -164
34 l-3 25 118 -1 117 0 0 34 c0 98 -113 164 -209 121z m93 -29 c34 -13 66 -46
66 -69 0 -17 -9 -18 -95 -18 -52 0 -95 4 -95 8 0 26 23 58 52 72 39 20 40 20
72 7z"/>
<path d="M3805 302 c-11 -3 -35 -16 -53 -30 -23 -17 -33 -21 -32 -11 5 29 -1
39 -20 39 -11 0 -20 -3 -21 -7 -5 -38 -2 -283 4 -284 42 -7 42 -7 43 88 1 101
15 136 60 153 35 14 41 13 64 -10 17 -17 20 -33 20 -125 0 -58 3 -105 8 -106
4 0 15 -2 25 -4 9 -2 17 0 18 3 0 4 1 50 2 102 2 107 16 135 73 145 56 10 68
-12 70 -128 2 -56 3 -107 3 -113 1 -5 12 -10 25 -10 l25 0 -3 121 c-2 130 -11
158 -56 173 -34 12 -86 -1 -115 -28 l-25 -23 -20 25 c-20 26 -57 37 -95 30z"/>
<path d="M4295 300 c-139 -30 -164 -219 -38 -284 99 -50 213 25 213 141 0 90
-88 161 -175 143z m69 -51 c71 -33 69 -156 -3 -193 -56 -30 -126 10 -131 75
-4 50 1 68 29 98 31 33 62 39 105 20z"/>
<path d="M4963 299 c-70 -14 -115 -65 -119 -133 -2 -45 17 -102 44 -126 62
-57 186 -47 222 19 15 30 -19 32 -53 4 -41 -33 -91 -31 -128 6 -30 31 -38 60
-16 62 6 1 59 2 116 3 116 1 122 6 100 72 -21 66 -96 108 -166 93z m100 -70
c46 -49 38 -56 -65 -56 -51 -1 -96 1 -100 4 -14 8 21 62 49 77 38 19 83 10
116 -25z"/>
<path d="M5275 303 c-65 -13 -95 -44 -95 -98 0 -31 27 -48 108 -70 50 -14 63
-22 68 -41 4 -14 1 -31 -6 -39 -17 -21 -95 -19 -131 2 -21 13 -32 14 -40 6
-16 -16 -4 -31 38 -48 87 -36 186 -2 190 65 4 49 -12 64 -97 91 -60 19 -76 28
-78 46 -7 46 69 64 131 32 15 -8 22 -8 28 2 13 21 11 24 -26 37 -43 16 -65 20
-90 15z"/>
<path d="M5920 303 c-67 -9 -90 -23 -124 -75 -23 -36 -23 -109 1 -151 73 -124
247 -91 273 51 16 91 -65 185 -150 175z m63 -67 c61 -57 41 -162 -37 -190 -28
-10 -82 14 -100 45 -31 53 -14 128 35 155 37 20 73 17 102 -10z"/>
<path d="M7050 302 c-137 -18 -177 -201 -60 -280 29 -20 44 -23 87 -19 55 6
113 38 113 62 0 21 -33 23 -52 2 -22 -24 -82 -33 -113 -17 -23 12 -58 68 -50
80 2 3 56 5 119 5 126 -1 131 1 116 56 -22 77 -86 121 -160 111z m67 -50 c25
-14 58 -68 45 -75 -4 -2 -47 -4 -97 -3 -84 1 -90 2 -87 21 2 11 16 32 32 46
32 27 69 31 107 11z"/>
<path d="M4532 153 c3 -144 3 -146 26 -148 21 -2 22 1 22 97 0 109 12 133 70
144 31 7 43 23 30 44 -10 17 -49 7 -77 -20 -23 -21 -32 -17 -28 13 2 12 -4 17
-21 17 l-25 0 3 -147z"/>
<path d="M4732 153 c3 -144 3 -146 26 -148 16 -1 22 4 22 19 1 42 2 241 1 259
-1 11 -9 17 -26 17 l-26 0 3 -147z"/>
<path d="M6132 153 l3 -147 24 0 c23 0 24 1 23 92 0 84 2 96 24 122 14 16 37
30 52 32 19 2 28 9 30 26 5 31 -37 30 -76 -3 -17 -14 -32 -25 -35 -25 -2 0 -2
11 1 25 4 22 1 25 -22 25 l-27 0 3 -147z"/>
<path d="M6624 152 c-1 -160 -4 -151 46 -143 4 1 5 251 1 284 -1 4 -11 7 -24
7 -23 0 -23 0 -23 -148z"/>
<path d="M7267 63 c-3 -7 -3 -17 1 -50 1 -6 10 -10 20 -9 11 2 18 13 20 34 3
26 0 32 -17 32 -11 0 -22 -3 -24 -7z"/>
</g>
</svg>
